<svg xmlns="http://www.w3.org/2000/svg" xmlns:xlink="http://www.w3.org/1999/xlink" width="375" viewBox="0 0 375 375" height="375" version="1.0"><defs><clipPath id="a"><path d="M 88.085938 0 L 288.335938 0 L 288.335938 224.25 L 88.085938 224.25 Z M 88.085938 0"/></clipPath><clipPath id="b"><path d="M 201.355469 14.679688 L 271.4375 55.050781 C 272.855469 54.0625 274.589844 53.492188 276.449219 53.492188 C 277.632812 53.492188 278.777344 53.730469 279.816406 54.167969 C 280.902344 54.613281 281.871094 55.265625 282.679688 56.074219 C 283.484375 56.875 284.136719 57.847656 284.589844 58.929688 C 285.023438 59.976562 285.265625 61.109375 285.265625 62.289062 C 285.265625 63.46875 285.03125 64.613281 284.589844 65.652344 C 284.144531 66.734375 283.488281 67.699219 282.679688 68.507812 C 282.085938 69.101562 281.402344 69.613281 280.648438 70.019531 L 280.640625 70.011719 C 280.507812 70.085938 280.367188 70.152344 280.234375 70.21875 L 280.234375 150.914062 C 280.703125 151.113281 281.175781 151.351562 281.644531 151.625 C 283.207031 152.523438 284.523438 153.703125 285.566406 155.054688 C 286.644531 156.457031 287.421875 158.042969 287.871094 159.71875 C 289.765625 166.765625 285.550781 174.15625 278.410156 176.054688 C 276.738281 176.5 274.96875 176.625 273.207031 176.386719 C 271.742188 176.195312 270.285156 175.757812 268.894531 175.054688 L 268.84375 175.054688 L 268.253906 174.71875 C 267.792969 174.453125 267.347656 174.15625 266.917969 173.835938 L 198.859375 213.035156 C 198.871094 213.242188 198.871094 213.441406 198.871094 213.648438 C 198.871094 215.074219 198.582031 216.4375 198.0625 217.699219 L 198.0625 217.707031 C 197.519531 219.011719 196.730469 220.175781 195.757812 221.148438 C 194.789062 222.113281 193.617188 222.898438 192.308594 223.441406 C 191.042969 223.960938 189.675781 224.25 188.238281 224.25 C 186.8125 224.25 185.4375 223.960938 184.171875 223.441406 C 182.855469 222.898438 181.6875 222.113281 180.722656 221.148438 C 179.753906 220.183594 178.96875 219.011719 178.425781 217.707031 C 177.902344 216.453125 177.613281 215.082031 177.613281 213.648438 C 177.613281 213.484375 177.621094 213.324219 177.628906 213.152344 L 109.554688 173.941406 C 109.101562 174.28125 108.625 174.601562 108.136719 174.882812 L 108.128906 174.890625 L 108.121094 174.890625 L 108.113281 174.882812 C 106.542969 175.78125 104.871094 176.328125 103.183594 176.550781 C 101.421875 176.78125 99.652344 176.664062 97.984375 176.21875 C 96.304688 175.773438 94.707031 174.992188 93.308594 173.917969 C 91.960938 172.886719 90.78125 171.566406 89.875 169.992188 L 89.859375 169.964844 L 89.851562 169.972656 C 88.957031 168.421875 88.414062 166.753906 88.191406 165.0625 C 87.960938 163.300781 88.089844 161.542969 88.535156 159.882812 C 88.980469 158.207031 89.761719 156.617188 90.839844 155.21875 C 91.875 153.875 93.195312 152.695312 94.773438 151.789062 L 95.359375 151.457031 L 95.390625 151.457031 C 95.621094 151.335938 95.851562 151.226562 96.066406 151.128906 L 96.066406 70.398438 C 95.875 70.316406 95.6875 70.234375 95.503906 70.136719 C 94.632812 69.707031 93.859375 69.144531 93.210938 68.5 C 92.410156 67.699219 91.761719 66.734375 91.308594 65.644531 C 90.878906 64.597656 90.632812 63.460938 90.632812 62.28125 C 90.632812 61.109375 90.871094 59.976562 91.308594 58.929688 L 91.308594 58.921875 C 91.753906 57.847656 92.410156 56.875 93.21875 56.074219 C 94.808594 54.484375 97.019531 53.5 99.449219 53.5 C 100.632812 53.5 101.777344 53.738281 102.820312 54.175781 C 103.472656 54.441406 104.082031 54.789062 104.640625 55.191406 L 174.75 14.804688 C 174.699219 14.332031 174.667969 13.84375 174.667969 13.351562 C 174.667969 11.566406 175.035156 9.835938 175.6875 8.257812 L 175.6875 8.25 C 176.871094 5.394531 178.246094 4.207031 180.5 2.34375 C 181.257812 1.824219 182.074219 1.386719 182.929688 1.03125 C 184.515625 0.378906 186.246094 0.015625 188.046875 0.015625 C 189.839844 0.015625 191.570312 0.378906 193.15625 1.03125 L 193.160156 1.03125 C 194.804688 1.707031 196.277344 2.699219 197.503906 3.925781 C 198.730469 5.148438 199.726562 6.617188 200.402344 8.257812 L 200.402344 8.265625 C 201.058594 9.84375 201.421875 11.566406 201.421875 13.359375 C 201.421875 13.804688 201.402344 14.25 201.355469 14.695312 Z M 94.007812 164.832031 Z M 109.152344 163.792969 C 109.609375 154.851562 96.730469 152.65625 94.1875 161.246094 C 94.039062 161.828125 93.949219 162.425781 93.917969 163.027344 C 93.886719 163.628906 93.917969 164.238281 94.007812 164.839844 C 95.679688 173.621094 108.707031 172.730469 109.152344 163.800781 Z M 180.589844 12.914062 C 180.558594 13.515625 180.589844 14.125 180.675781 14.726562 C 181.042969 16.617188 182.074219 18.226562 183.511719 19.332031 C 184.945312 20.4375 186.773438 21.039062 188.707031 20.910156 C 190.640625 20.777344 192.375 19.941406 193.644531 18.648438 C 194.917969 17.359375 195.734375 15.613281 195.832031 13.6875 C 195.929688 11.757812 195.296875 9.941406 194.160156 8.53125 C 193.019531 7.113281 191.386719 6.105469 189.480469 5.777344 C 187.570312 5.453125 185.6875 5.867188 184.148438 6.824219 C 182.609375 7.78125 181.414062 9.289062 180.863281 11.132812 C 180.714844 11.714844 180.625 12.3125 180.59375 12.914062 Z M 267.382812 162.828125 C 267.355469 163.429688 267.382812 164.035156 267.472656 164.636719 C 267.839844 166.53125 268.871094 168.140625 270.308594 169.246094 C 271.742188 170.351562 273.570312 170.949219 275.503906 170.824219 C 277.4375 170.691406 279.171875 169.851562 280.441406 168.5625 C 281.714844 167.269531 282.53125 165.527344 282.628906 163.597656 C 282.722656 161.671875 282.09375 159.851562 280.953125 158.445312 C 279.816406 157.027344 278.179688 156.019531 276.277344 155.691406 C 274.367188 155.367188 272.484375 155.78125 270.945312 156.738281 C 269.40625 157.695312 268.210938 159.199219 267.660156 161.046875 C 267.511719 161.625 267.421875 162.226562 267.390625 162.828125 Z M 108.054688 60.390625 C 108.1875 61.007812 108.261719 61.636719 108.261719 62.28125 C 108.261719 63.460938 108.023438 64.605469 107.585938 65.644531 C 107.140625 66.726562 106.484375 67.691406 105.675781 68.5 C 104.929688 69.242188 104.054688 69.847656 103.070312 70.292969 C 102.824219 70.40625 102.582031 70.5 102.320312 70.589844 L 102.320312 150.03125 C 102.824219 150.0625 103.316406 150.128906 103.808594 150.210938 L 177.949219 22.097656 C 177.570312 21.667969 177.21875 21.207031 176.90625 20.742188 L 108.046875 60.40625 Z M 176.640625 114.453125 L 176.839844 114.558594 L 176.847656 114.558594 C 177.285156 114.789062 177.703125 115.054688 178.089844 115.351562 L 223.449219 89.226562 C 223.34375 88.691406 223.292969 88.148438 223.292969 87.617188 C 223.292969 86.445312 223.527344 85.308594 223.96875 84.261719 L 223.96875 84.253906 C 224.371094 83.285156 224.933594 82.40625 225.632812 81.660156 L 193.222656 25.652344 C 192.8125 25.824219 192.394531 25.976562 191.972656 26.105469 L 191.964844 26.105469 C 191.019531 26.394531 190.046875 26.578125 189.050781 26.660156 L 176.648438 114.460938 Z M 181.367188 120.632812 C 181.480469 121.191406 181.53125 121.753906 181.53125 122.324219 L 181.53125 122.546875 L 263.882812 155.699219 C 264.441406 154.867188 265.070312 154.125 265.761719 153.472656 C 266.074219 153.183594 266.394531 152.902344 266.730469 152.644531 L 234.058594 96.183594 C 233.433594 96.324219 232.777344 96.398438 232.117188 96.398438 C 230.933594 96.398438 229.789062 96.160156 228.75 95.722656 C 227.996094 95.410156 227.304688 95.011719 226.6875 94.527344 L 181.382812 120.625 Z M 179.175781 128.304688 C 179.101562 128.386719 179.027344 128.46875 178.953125 128.542969 C 177.359375 130.128906 175.152344 131.117188 172.722656 131.117188 C 171.539062 131.117188 170.394531 130.878906 169.351562 130.441406 C 168.453125 130.070312 167.636719 129.566406 166.929688 128.949219 L 114.203125 159.320312 C 114.3125 159.667969 114.410156 160.015625 114.492188 160.371094 L 114.492188 160.378906 C 114.558594 160.675781 114.617188 160.964844 114.664062 161.261719 L 261.027344 161.261719 L 179.175781 128.3125 Z M 163.984375 123.476562 C 163.933594 123.089844 163.902344 122.703125 163.902344 122.324219 C 163.902344 121.152344 164.140625 120.019531 164.578125 118.972656 L 164.578125 118.964844 C 165.023438 117.890625 165.679688 116.917969 166.488281 116.117188 C 167.277344 115.328125 168.222656 114.691406 169.277344 114.246094 C 169.648438 114.089844 170.03125 113.957031 170.421875 113.851562 L 182.820312 26.089844 L 109.539062 152.71875 C 109.757812 152.878906 109.957031 153.042969 110.164062 153.222656 C 110.457031 153.464844 110.730469 153.734375 111.003906 154.007812 L 163.992188 123.488281 Z M 232.101562 78.824219 C 233.285156 78.824219 234.429688 79.0625 235.472656 79.5 C 236.554688 79.945312 237.523438 80.597656 238.332031 81.40625 C 239.136719 82.207031 239.789062 83.179688 240.246094 84.261719 C 240.675781 85.308594 240.921875 86.445312 240.921875 87.621094 C 240.921875 88.800781 240.683594 89.945312 240.246094 90.984375 C 239.976562 91.621094 239.640625 92.214844 239.25 92.765625 L 272.410156 150.070312 C 272.925781 149.972656 273.445312 149.898438 273.972656 149.859375 L 273.972656 70.71875 C 273.667969 70.628906 273.363281 70.515625 273.074219 70.398438 C 271.980469 69.945312 271.011719 69.292969 270.210938 68.5 C 269.40625 67.699219 268.761719 66.734375 268.304688 65.644531 C 267.875 64.597656 267.628906 63.460938 267.628906 62.28125 C 267.628906 61.570312 267.71875 60.867188 267.890625 60.183594 L 199.238281 20.636719 L 198.292969 21.988281 L 231.210938 78.871094 C 231.507812 78.839844 231.804688 78.824219 232.101562 78.824219 Z M 114.15625 167.492188 C 113.988281 168.011719 113.777344 168.53125 113.535156 169.042969 L 179.71875 207.167969 L 180.746094 206.140625 C 182.671875 204.222656 185.324219 203.035156 188.261719 203.035156 C 189.683594 203.035156 191.058594 203.324219 192.320312 203.84375 L 192.328125 203.84375 C 193.636719 204.382812 194.804688 205.171875 195.777344 206.140625 C 196.085938 206.445312 196.382812 206.78125 196.648438 207.128906 L 262.914062 168.960938 C 262.683594 168.480469 262.476562 167.992188 262.304688 167.492188 Z M 114.15625 167.492188"/></clipPath><linearGradient x1="15.771" gradientTransform="matrix(.74357 0 0 .74181 88.089 0)" xmlns:xlink="http://www.w3.org/1999/xlink" y1="314.833" x2="267.201" gradientUnits="userSpaceOnUse" y2="-1.651" xlink:type="simple" xlink:actuate="onLoad" id="c" xlink:show="other"><stop stop-color="#BD04CD" offset="0"/><stop stop-color="#BC05CD" offset=".004"/><stop stop-color="#BA06CD" offset=".008"/><stop stop-color="#B907CD" offset=".012"/><stop stop-color="#B808CE" offset=".016"/><stop stop-color="#B709CE" offset=".02"/><stop stop-color="#B60ACE" offset=".023"/><stop stop-color="#B40BCE" offset=".027"/><stop stop-color="#B30DCE" offset=".031"/><stop stop-color="#B20ECF" offset=".035"/><stop stop-color="#B10FCF" offset=".039"/><stop stop-color="#B010CF" offset=".043"/><stop stop-color="#AE11CF" offset=".047"/><stop stop-color="#AD12D0" offset=".051"/><stop stop-color="#AC13D0" offset=".055"/><stop stop-color="#AB14D0" offset=".059"/><stop stop-color="#AA15D0" offset=".063"/><stop stop-color="#A816D0" offset=".066"/><stop stop-color="#A717D1" offset=".07"/><stop stop-color="#A618D1" offset=".074"/><stop stop-color="#A51AD1" offset=".078"/><stop stop-color="#A41BD1" offset=".082"/><stop stop-color="#A21CD1" offset=".086"/><stop stop-color="#A11DD2" offset=".09"/><stop stop-color="#A01ED2" offset=".094"/><stop stop-color="#9F1FD2" offset=".098"/><stop stop-color="#9E20D2" offset=".102"/><stop stop-color="#9C21D3" offset=".105"/><stop stop-color="#9B22D3" offset=".109"/><stop stop-color="#9A23D3" offset=".113"/><stop stop-color="#9924D3" offset=".117"/><stop stop-color="#9825D3" offset=".121"/><stop stop-color="#9627D4" offset=".125"/><stop stop-color="#9528D4" offset=".129"/><stop stop-color="#9429D4" offset=".133"/><stop stop-color="#932AD4" offset=".137"/><stop stop-color="#922BD4" offset=".141"/><stop stop-color="#902CD5" offset=".145"/><stop stop-color="#8F2DD5" offset=".148"/><stop stop-color="#8E2ED5" offset=".152"/><stop stop-color="#8D2FD5" offset=".156"/><stop stop-color="#8C30D5" offset=".16"/><stop stop-color="#8A31D6" offset=".164"/><stop stop-color="#8933D6" offset=".168"/><stop stop-color="#8834D6" offset=".172"/><stop stop-color="#8735D6" offset=".176"/><stop stop-color="#8636D7" offset=".18"/><stop stop-color="#8437D7" offset=".184"/><stop stop-color="#8338D7" offset=".188"/><stop stop-color="#8239D7" offset=".191"/><stop stop-color="#813AD7" offset=".195"/><stop stop-color="#803BD8" offset=".199"/><stop stop-color="#7E3CD8" offset=".203"/><stop stop-color="#7D3DD8" offset=".207"/><stop stop-color="#7C3ED8" offset=".211"/><stop stop-color="#7B40D8" offset=".215"/><stop stop-color="#7A41D9" offset=".219"/><stop stop-color="#7842D9" offset=".223"/><stop stop-color="#7743D9" offset=".227"/><stop stop-color="#7644D9" offset=".23"/><stop stop-color="#7545DA" offset=".234"/><stop stop-color="#7446DA" offset=".238"/><stop stop-color="#7247DA" offset=".242"/><stop stop-color="#7148DA" offset=".246"/><stop stop-color="#7049DA" offset=".25"/><stop stop-color="#6F4ADB" offset=".254"/><stop stop-color="#6E4BDB" offset=".258"/><stop stop-color="#6C4DDB" offset=".262"/><stop stop-color="#6B4EDB" offset=".266"/><stop stop-color="#6A4FDB" offset=".27"/><stop stop-color="#6950DC" offset=".273"/><stop stop-color="#6851DC" offset=".277"/><stop stop-color="#6652DC" offset=".281"/><stop stop-color="#6553DC" offset=".285"/><stop stop-color="#6454DD" offset=".289"/><stop stop-color="#6355DD" offset=".293"/><stop stop-color="#6256DD" offset=".297"/><stop stop-color="#6157DD" offset=".301"/><stop stop-color="#5F58DD" offset=".305"/><stop stop-color="#5E59DE" offset=".309"/><stop stop-color="#5D5ADE" offset=".313"/><stop stop-color="#5C5BDE" offset=".316"/><stop stop-color="#5B5CDE" offset=".32"/><stop stop-color="#5A5DDE" offset=".324"/><stop stop-color="#595EDE" offset=".328"/><stop stop-color="#585FDF" offset=".332"/><stop stop-color="#5760DF" offset=".336"/><stop stop-color="#5661DF" offset=".34"/><stop stop-color="#5562DF" offset=".344"/><stop stop-color="#5462DF" offset=".348"/><stop stop-color="#5363E0" offset=".352"/><stop stop-color="#5264E0" offset=".355"/><stop stop-color="#5165E0" offset=".359"/><stop stop-color="#5066E0" offset=".363"/><stop stop-color="#4F67E0" offset=".367"/><stop stop-color="#4E68E1" offset=".371"/><stop stop-color="#4D69E1" offset=".375"/><stop stop-color="#4C6AE1" offset=".379"/><stop stop-color="#4B6BE1" offset=".383"/><stop stop-color="#4A6CE1" offset=".387"/><stop stop-color="#496DE1" offset=".391"/><stop stop-color="#486EE2" offset=".395"/><stop stop-color="#476FE2" offset=".398"/><stop stop-color="#466FE2" offset=".402"/><stop stop-color="#4570E2" offset=".406"/><stop stop-color="#4471E2" offset=".41"/><stop stop-color="#4372E3" offset=".414"/><stop stop-color="#4273E3" offset=".418"/><stop stop-color="#4174E3" offset=".422"/><stop stop-color="#4075E3" offset=".426"/><stop stop-color="#3F76E3" offset=".43"/><stop stop-color="#3E77E4" offset=".434"/><stop stop-color="#3D78E4" offset=".438"/><stop stop-color="#3C79E4" offset=".441"/><stop stop-color="#3B7AE4" offset=".445"/><stop stop-color="#3A7BE4" offset=".449"/><stop stop-color="#397CE5" offset=".453"/><stop stop-color="#387CE5" offset=".457"/><stop stop-color="#377DE5" offset=".461"/><stop stop-color="#367EE5" offset=".465"/><stop stop-color="#357FE5" offset=".469"/><stop stop-color="#3380E5" offset=".473"/><stop stop-color="#3281E6" offset=".477"/><stop stop-color="#3182E6" offset=".48"/><stop stop-color="#3083E6" offset=".484"/><stop stop-color="#2F84E6" offset=".488"/><stop stop-color="#2E85E6" offset=".492"/><stop stop-color="#2D86E7" offset=".496"/><stop stop-color="#2C87E7" offset=".5"/><stop stop-color="#2B88E7" offset=".504"/><stop stop-color="#2A89E7" offset=".508"/><stop stop-color="#2989E7" offset=".512"/><stop stop-color="#288AE8" offset=".516"/><stop stop-color="#278BE8" offset=".52"/><stop stop-color="#268CE8" offset=".523"/><stop stop-color="#258DE8" offset=".527"/><stop stop-color="#248EE8" offset=".531"/><stop stop-color="#238FE8" offset=".535"/><stop stop-color="#2290E9" offset=".539"/><stop stop-color="#2191E9" offset=".543"/><stop stop-color="#2092E9" offset=".547"/><stop stop-color="#1F93E9" offset=".551"/><stop stop-color="#1E94E9" offset=".555"/><stop stop-color="#1D95EA" offset=".559"/><stop stop-color="#1C96EA" offset=".563"/><stop stop-color="#1B96EA" offset=".566"/><stop stop-color="#1A97EA" offset=".57"/><stop stop-color="#1998EA" offset=".574"/><stop stop-color="#1899EB" offset=".578"/><stop stop-color="#179AEB" offset=".582"/><stop stop-color="#169BEB" offset=".586"/><stop stop-color="#159CEB" offset=".59"/><stop stop-color="#149DEB" offset=".594"/><stop stop-color="#139EEB" offset=".598"/><stop stop-color="#129FEC" offset=".602"/><stop stop-color="#11A0EC" offset=".605"/><stop stop-color="#10A1EC" offset=".609"/><stop stop-color="#0FA2EC" offset=".613"/><stop stop-color="#0EA3EC" offset=".617"/><stop stop-color="#0DA3ED" offset=".621"/><stop stop-color="#0CA4ED" offset=".625"/><stop stop-color="#0BA5ED" offset=".629"/><stop stop-color="#0AA6ED" offset=".633"/><stop stop-color="#09A7ED" offset=".637"/><stop stop-color="#08A8EE" offset=".641"/><stop stop-color="#06A9EE" offset=".645"/><stop stop-color="#05AAEE" offset=".648"/><stop stop-color="#04ABEE" offset=".652"/><stop stop-color="#03ACEE" offset=".656"/><stop stop-color="#02ADEE" offset=".66"/><stop stop-color="#01AEEF" offset=".664"/><stop stop-color="#01AFEF" offset=".668"/><stop stop-color="#00AFEF" offset=".672"/><stop stop-color="#00B0EF" offset=".676"/><stop stop-color="#00B1EF" offset=".68"/><stop stop-color="#00B2F0" offset=".684"/><stop stop-color="#00B3F0" offset=".688"/><stop stop-color="#00B4F0" offset=".691"/><stop stop-color="#00B5F0" offset=".695"/><stop stop-color="#00B6F0" offset=".699"/><stop stop-color="#00B7F0" offset=".703"/><stop stop-color="#00B7F1" offset=".707"/><stop stop-color="#00B8F1" offset=".711"/><stop stop-color="#00B9F1" offset=".715"/><stop stop-color="#00BAF1" offset=".719"/><stop stop-color="#00BBF1" offset=".723"/><stop stop-color="#00BCF2" offset=".727"/><stop stop-color="#00BDF2" offset=".73"/><stop stop-color="#00BEF2" offset=".734"/><stop stop-color="#00BFF2" offset=".738"/><stop stop-color="#00BFF2" offset=".742"/><stop stop-color="#00C0F2" offset=".746"/><stop stop-color="#00C1F3" offset=".75"/><stop stop-color="#00C2F3" offset=".754"/><stop stop-color="#00C3F3" offset=".758"/><stop stop-color="#00C4F3" offset=".762"/><stop stop-color="#00C5F3" offset=".766"/><stop stop-color="#00C6F3" offset=".77"/><stop stop-color="#00C7F4" offset=".773"/><stop stop-color="#00C7F4" offset=".777"/><stop stop-color="#00C8F4" offset=".781"/><stop stop-color="#00C9F4" offset=".785"/><stop stop-color="#00CAF4" offset=".789"/><stop stop-color="#00CBF5" offset=".793"/><stop stop-color="#00CCF5" offset=".797"/><stop stop-color="#00CDF5" offset=".801"/><stop stop-color="#00CEF5" offset=".805"/><stop stop-color="#00CEF5" offset=".809"/><stop stop-color="#00CFF5" offset=".813"/><stop stop-color="#00D0F6" offset=".816"/><stop stop-color="#00D1F6" offset=".82"/><stop stop-color="#00D2F6" offset=".824"/><stop stop-color="#00D3F6" offset=".828"/><stop stop-color="#00D4F6" offset=".832"/><stop stop-color="#00D5F7" offset=".836"/><stop stop-color="#00D6F7" offset=".84"/><stop stop-color="#00D6F7" offset=".844"/><stop stop-color="#00D7F7" offset=".848"/><stop stop-color="#00D8F7" offset=".852"/><stop stop-color="#00D9F7" offset=".855"/><stop stop-color="#00DAF8" offset=".859"/><stop stop-color="#00DBF8" offset=".863"/><stop stop-color="#00DCF8" offset=".867"/><stop stop-color="#00DDF8" offset=".871"/><stop stop-color="#00DEF8" offset=".875"/><stop stop-color="#00DEF8" offset=".879"/><stop stop-color="#00DFF9" offset=".883"/><stop stop-color="#00E0F9" offset=".887"/><stop stop-color="#00E1F9" offset=".891"/><stop stop-color="#00E2F9" offset=".895"/><stop stop-color="#00E3F9" offset=".898"/><stop stop-color="#00E4FA" offset=".902"/><stop stop-color="#00E5FA" offset=".906"/><stop stop-color="#00E5FA" offset=".91"/><stop stop-color="#00E6FA" offset=".914"/><stop stop-color="#00E7FA" offset=".918"/><stop stop-color="#00E8FA" offset=".922"/><stop stop-color="#00E9FB" offset=".926"/><stop stop-color="#00EAFB" offset=".93"/><stop stop-color="#00EBFB" offset=".934"/><stop stop-color="#00ECFB" offset=".938"/><stop stop-color="#00EDFB" offset=".941"/><stop stop-color="#00EDFB" offset=".945"/><stop stop-color="#00EEFC" offset=".949"/><stop stop-color="#00EFFC" offset=".953"/><stop stop-color="#00F0FC" offset=".957"/><stop stop-color="#00F1FC" offset=".961"/><stop stop-color="#00F2FC" offset=".965"/><stop stop-color="#00F3FD" offset=".969"/><stop stop-color="#00F4FD" offset=".973"/><stop stop-color="#00F5FD" offset=".977"/><stop stop-color="#00F5FD" offset=".98"/><stop stop-color="#00F6FD" offset=".984"/><stop stop-color="#00F7FD" offset=".988"/><stop stop-color="#00F8FE" offset=".992"/><stop stop-color="#00F9FE" offset=".996"/><stop stop-color="#00FAFE" offset="1"/></linearGradient></defs><g clip-path="url(#a)"><g clip-path="url(#b)"><path fill="url(#c)" d="M 88.085938 0.015625 L 88.085938 224.25 L 288.335938 224.25 L 288.335938 0.015625 Z M 88.085938 0.015625"/></g></g><g fill="#FFF"><g><g><path d="M 34.4375 -9.5 L 13.859375 -9.5 L 9.9375 0 L -0.5625 0 L 19.1875 -44.3125 L 29.3125 -44.3125 L 49.125 0 L 38.375 0 Z M 31.21875 -17.28125 L 24.1875 -34.25 L 17.15625 -17.28125 Z M 31.21875 -17.28125" transform="translate(133.792 301.414)"/></g></g></g><g fill="#FFF"><g><g><path d="M 5.25 -44.3125 L 25.390625 -44.3125 C 30.203125 -44.3125 34.453125 -43.394531 38.140625 -41.5625 C 41.835938 -39.726562 44.707031 -37.144531 46.75 -33.8125 C 48.800781 -30.476562 49.828125 -26.59375 49.828125 -22.15625 C 49.828125 -17.726562 48.800781 -13.847656 46.75 -10.515625 C 44.707031 -7.179688 41.835938 -4.59375 38.140625 -2.75 C 34.453125 -0.914062 30.203125 0 25.390625 0 L 5.25 0 Z M 24.875 -8.421875 C 29.3125 -8.421875 32.847656 -9.65625 35.484375 -12.125 C 38.117188 -14.59375 39.4375 -17.9375 39.4375 -22.15625 C 39.4375 -26.375 38.117188 -29.71875 35.484375 -32.1875 C 32.847656 -34.65625 29.3125 -35.890625 24.875 -35.890625 L 15.515625 -35.890625 L 15.515625 -8.421875 Z M 24.875 -8.421875" transform="translate(190.133 301.414)"/></g></g></g><g fill="#8C52FF"><g><g><path d="M 11.25 -24.078125 C 14.28125 -24.078125 15.796875 -22.46875 15.796875 -19.25 L 15.796875 0 L 10.671875 0 L 10.671875 -7.953125 L 6.96875 -7.953125 L 6.96875 0 L 1.828125 0 L 1.828125 -19.25 C 1.828125 -22.46875 3.34375 -24.078125 6.375 -24.078125 Z M 6.96875 -11.90625 L 10.671875 -11.90625 L 10.671875 -19.875 C 10.671875 -20.0625 10.601562 -20.226562 10.46875 -20.375 C 10.332031 -20.519531 10.164062 -20.59375 9.96875 -20.59375 L 7.65625 -20.59375 C 7.46875 -20.59375 7.304688 -20.519531 7.171875 -20.375 C 7.035156 -20.226562 6.96875 -20.0625 6.96875 -19.875 Z M 6.96875 -11.90625" transform="translate(65.197 364.92)"/></g></g></g><g fill="#8C52FF"><g><g><path d="M 9.28125 -18.25 L 10.234375 -18.25 L 10.234375 -13.484375 L 7.8125 -13.484375 C 6.976562 -13.484375 6.5625 -13.054688 6.5625 -12.203125 L 6.5625 0 L 1.65625 0 L 1.65625 -17.890625 L 6.125 -17.890625 L 6.125 -16.171875 C 6.832031 -17.554688 7.882812 -18.25 9.28125 -18.25 Z M 9.28125 -18.25" transform="translate(89.79 364.92)"/></g></g></g><g fill="#8C52FF"><g><g><path d="M 8.171875 -2.828125 L 9.640625 -2.828125 L 9.640625 0.359375 L 6.1875 0.359375 C 3.164062 0.359375 1.65625 -1.25 1.65625 -4.46875 L 1.65625 -21.78125 L 6.5625 -21.78125 L 6.5625 -17.890625 L 9.640625 -17.890625 L 9.640625 -14.328125 L 6.5625 -14.328125 L 6.5625 -4.578125 C 6.5625 -3.898438 6.695312 -3.4375 6.96875 -3.1875 C 7.238281 -2.945312 7.640625 -2.828125 8.171875 -2.828125 Z M 8.171875 -2.828125" transform="translate(107.384 364.92)"/></g></g></g><g fill="#8C52FF"><g><g><path d="M 9.96875 -17.890625 L 14.875 -17.890625 L 14.875 0 L 10.40625 0 L 10.40625 -0.921875 C 9.65625 -0.0664062 8.507812 0.359375 6.96875 0.359375 L 6.1875 0.359375 C 3.164062 0.359375 1.65625 -1.25 1.65625 -4.46875 L 1.65625 -17.890625 L 6.5625 -17.890625 L 6.5625 -3.890625 C 6.5625 -3.691406 6.628906 -3.519531 6.765625 -3.375 C 6.898438 -3.226562 7.066406 -3.15625 7.265625 -3.15625 L 9.28125 -3.15625 C 9.46875 -3.15625 9.628906 -3.226562 9.765625 -3.375 C 9.898438 -3.519531 9.96875 -3.691406 9.96875 -3.890625 Z M 9.96875 -17.890625" transform="translate(124.757 364.92)"/></g></g></g><g fill="#8C52FF"><g><g><path d="M 9.28125 -18.25 L 10.234375 -18.25 L 10.234375 -13.484375 L 7.8125 -13.484375 C 6.976562 -13.484375 6.5625 -13.054688 6.5625 -12.203125 L 6.5625 0 L 1.65625 0 L 1.65625 -17.890625 L 6.125 -17.890625 L 6.125 -16.171875 C 6.832031 -17.554688 7.882812 -18.25 9.28125 -18.25 Z M 9.28125 -18.25" transform="translate(148.14 364.92)"/></g></g></g><g fill="#8C52FF"><g><g><path d="M 14.875 -13.421875 L 14.875 -4.46875 C 14.875 -1.25 13.363281 0.359375 10.34375 0.359375 L 6.1875 0.359375 C 3.164062 0.359375 1.65625 -1.25 1.65625 -4.46875 L 1.65625 -13.421875 C 1.65625 -16.640625 3.164062 -18.25 6.1875 -18.25 L 10.34375 -18.25 C 13.363281 -18.25 14.875 -16.640625 14.875 -13.421875 Z M 9.96875 -3.453125 L 9.96875 -14.484375 C 9.96875 -14.671875 9.898438 -14.835938 9.765625 -14.984375 C 9.628906 -15.140625 9.46875 -15.21875 9.28125 -15.21875 L 7.265625 -15.21875 C 7.066406 -15.21875 6.898438 -15.140625 6.765625 -14.984375 C 6.628906 -14.835938 6.5625 -14.671875 6.5625 -14.484375 L 6.5625 -3.453125 C 6.5625 -3.253906 6.628906 -3.082031 6.765625 -2.9375 C 6.898438 -2.789062 7.066406 -2.71875 7.265625 -2.71875 L 9.28125 -2.71875 C 9.46875 -2.71875 9.628906 -2.789062 9.765625 -2.9375 C 9.898438 -3.082031 9.96875 -3.253906 9.96875 -3.453125 Z M 9.96875 -3.453125" transform="translate(165.734 364.92)"/></g></g></g><g fill="#8C52FF"><g><g><path d="M 10.671875 -3.890625 L 10.671875 -7.546875 L 15.546875 -7.546875 L 15.546875 -4.46875 C 15.546875 -1.25 14.03125 0.359375 11 0.359375 L 6.375 0.359375 C 3.34375 0.359375 1.828125 -1.25 1.828125 -4.46875 L 1.828125 -19.25 C 1.828125 -22.46875 3.34375 -24.078125 6.375 -24.078125 L 11 -24.078125 C 14.03125 -24.078125 15.546875 -22.46875 15.546875 -19.25 L 15.546875 -17.015625 L 10.671875 -17.015625 L 10.671875 -19.875 C 10.671875 -20.0625 10.601562 -20.226562 10.46875 -20.375 C 10.332031 -20.519531 10.164062 -20.59375 9.96875 -20.59375 L 7.65625 -20.59375 C 7.46875 -20.59375 7.304688 -20.519531 7.171875 -20.375 C 7.035156 -20.226562 6.96875 -20.0625 6.96875 -19.875 L 6.96875 -3.890625 C 6.96875 -3.691406 7.035156 -3.519531 7.171875 -3.375 C 7.304688 -3.226562 7.46875 -3.15625 7.65625 -3.15625 L 9.96875 -3.15625 C 10.164062 -3.15625 10.332031 -3.226562 10.46875 -3.375 C 10.601562 -3.519531 10.671875 -3.691406 10.671875 -3.890625 Z M 10.671875 -3.890625" transform="translate(189.118 364.92)"/></g></g></g><g fill="#8C52FF"><g><g><path d="M 9.28125 -18.25 L 10.234375 -18.25 L 10.234375 -13.484375 L 7.8125 -13.484375 C 6.976562 -13.484375 6.5625 -13.054688 6.5625 -12.203125 L 6.5625 0 L 1.65625 0 L 1.65625 -17.890625 L 6.125 -17.890625 L 6.125 -16.171875 C 6.832031 -17.554688 7.882812 -18.25 9.28125 -18.25 Z M 9.28125 -18.25" transform="translate(212.722 364.92)"/></g></g></g><g fill="#8C52FF"><g><g><path d="M 9.96875 -17.890625 L 14.875 -17.890625 L 14.875 1.359375 C 14.875 4.578125 13.363281 6.1875 10.34375 6.1875 L 6.671875 6.1875 C 3.640625 6.1875 2.125 4.578125 2.125 1.359375 L 2.125 0.765625 L 6.890625 0.765625 L 6.890625 1.9375 C 6.890625 2.132812 6.957031 2.304688 7.09375 2.453125 C 7.226562 2.597656 7.394531 2.671875 7.59375 2.671875 L 9.28125 2.671875 C 9.46875 2.671875 9.628906 2.597656 9.765625 2.453125 C 9.898438 2.304688 9.96875 2.132812 9.96875 1.9375 L 9.96875 -1.6875 C 9.238281 -1.101562 8.238281 -0.8125 6.96875 -0.8125 L 6.1875 -0.8125 C 3.164062 -0.8125 1.65625 -2.421875 1.65625 -5.640625 L 1.65625 -17.890625 L 6.5625 -17.890625 L 6.5625 -5.0625 C 6.5625 -4.863281 6.628906 -4.691406 6.765625 -4.546875 C 6.898438 -4.398438 7.066406 -4.328125 7.265625 -4.328125 L 9.28125 -4.328125 C 9.46875 -4.328125 9.628906 -4.398438 9.765625 -4.546875 C 9.898438 -4.691406 9.96875 -4.863281 9.96875 -5.0625 Z M 9.96875 -17.890625" transform="translate(230.315 364.92)"/></g></g></g><g fill="#8C52FF"><g><g><path d="M 10.34375 0.359375 L 9.5625 0.359375 C 8.320312 0.359375 7.320312 0.0664062 6.5625 -0.515625 L 6.5625 5.828125 L 1.65625 5.828125 L 1.65625 -17.890625 L 5.796875 -17.890625 L 5.796875 -16.5625 C 6.546875 -17.6875 7.800781 -18.25 9.5625 -18.25 L 10.34375 -18.25 C 13.363281 -18.25 14.875 -16.640625 14.875 -13.421875 L 14.875 -4.46875 C 14.875 -1.25 13.363281 0.359375 10.34375 0.359375 Z M 6.5625 -14 L 6.5625 -3.890625 C 6.5625 -3.691406 6.628906 -3.519531 6.765625 -3.375 C 6.898438 -3.226562 7.066406 -3.15625 7.265625 -3.15625 L 9.28125 -3.15625 C 9.46875 -3.15625 9.628906 -3.226562 9.765625 -3.375 C 9.898438 -3.519531 9.96875 -3.691406 9.96875 -3.890625 L 9.96875 -14 C 9.96875 -14.195312 9.898438 -14.367188 9.765625 -14.515625 C 9.628906 -14.660156 9.46875 -14.734375 9.28125 -14.734375 L 7.265625 -14.734375 C 7.066406 -14.734375 6.898438 -14.660156 6.765625 -14.515625 C 6.628906 -14.367188 6.5625 -14.195312 6.5625 -14 Z M 6.5625 -14" transform="translate(253.7 364.92)"/></g></g></g><g fill="#8C52FF"><g><g><path d="M 8.171875 -2.828125 L 9.640625 -2.828125 L 9.640625 0.359375 L 6.1875 0.359375 C 3.164062 0.359375 1.65625 -1.25 1.65625 -4.46875 L 1.65625 -21.78125 L 6.5625 -21.78125 L 6.5625 -17.890625 L 9.640625 -17.890625 L 9.640625 -14.328125 L 6.5625 -14.328125 L 6.5625 -4.578125 C 6.5625 -3.898438 6.695312 -3.4375 6.96875 -3.1875 C 7.238281 -2.945312 7.640625 -2.828125 8.171875 -2.828125 Z M 8.171875 -2.828125" transform="translate(277.083 364.92)"/></g></g></g><g fill="#8C52FF"><g><g><path d="M 14.875 -13.421875 L 14.875 -4.46875 C 14.875 -1.25 13.363281 0.359375 10.34375 0.359375 L 6.1875 0.359375 C 3.164062 0.359375 1.65625 -1.25 1.65625 -4.46875 L 1.65625 -13.421875 C 1.65625 -16.640625 3.164062 -18.25 6.1875 -18.25 L 10.34375 -18.25 C 13.363281 -18.25 14.875 -16.640625 14.875 -13.421875 Z M 9.96875 -3.453125 L 9.96875 -14.484375 C 9.96875 -14.671875 9.898438 -14.835938 9.765625 -14.984375 C 9.628906 -15.140625 9.46875 -15.21875 9.28125 -15.21875 L 7.265625 -15.21875 C 7.066406 -15.21875 6.898438 -15.140625 6.765625 -14.984375 C 6.628906 -14.835938 6.5625 -14.671875 6.5625 -14.484375 L 6.5625 -3.453125 C 6.5625 -3.253906 6.628906 -3.082031 6.765625 -2.9375 C 6.898438 -2.789062 7.066406 -2.71875 7.265625 -2.71875 L 9.28125 -2.71875 C 9.46875 -2.71875 9.628906 -2.789062 9.765625 -2.9375 C 9.898438 -3.082031 9.96875 -3.253906 9.96875 -3.453125 Z M 9.96875 -3.453125" transform="translate(294.457 364.92)"/></g></g></g></svg>